<svg xmlns="http://www.w3.org/2000/svg" viewBox="0 0 882 720"><style>.st0{display:none}.st1,.st2{display:inline}.st2{fill:#fff}.st3{fill:url(#SVGID_1_)}.st4{fill:url(#SVGID_2_)}.st5{fill:#606266}</style><g id="bg" class="st0"><path class="st1" d="M-309-390h1500v1500H-309z"/></g><g id="外円" class="st0"><circle class="st2" cx="441" cy="360" r="750"/></g><g id="内円" class="st0"><g class="st1"><linearGradient id="SVGID_1_" gradientUnits="userSpaceOnUse" x1="441" y1="1060" x2="441" y2="-340"><stop offset="0" stop-color="#73d13d"/><stop offset=".994" stop-color="#73d13d" stop-opacity=".6"/></linearGradient><circle class="st3" cx="441" cy="360" r="700"/></g></g><g id="内円のコピー" class="st0"><g class="st1"><linearGradient id="SVGID_2_" gradientUnits="userSpaceOnUse" x1="441" y1="1060" x2="441" y2="-340"><stop offset="0" stop-color="#40a9ff"/><stop offset=".993" stop-color="#40a9ff" stop-opacity=".6"/></linearGradient><circle class="st4" cx="441" cy="360" r="700"/></g></g><g id="Camera"><path class="st5" d="M156.49 282.49c38.81.03 74.32-15.84 99.71-41.32 25.45-25.36 41.32-60.87 41.32-99.69s-15.87-74.35-41.32-99.74C230.81 16.29 195.3.42 156.49.45 117.68.42 82.17 16.29 56.78 41.77a140.668 140.668 0 00-41.29 99.71c-.03 38.81 15.84 74.29 41.29 99.69 25.4 25.48 60.9 41.35 99.71 41.32zM114.1 99.07c10.97-10.92 25.72-17.54 42.39-17.56 16.7.03 31.42 6.64 42.42 17.56 10.89 10.97 17.54 25.72 17.54 42.42 0 16.68-6.64 31.39-17.54 42.39-11 10.89-25.72 17.54-42.42 17.56-16.68-.03-31.42-6.67-42.39-17.56-10.92-11-17.54-25.72-17.56-42.39.03-16.7 6.64-31.44 17.56-42.42zM465.48 282.49c38.81.03 74.32-15.84 99.71-41.32 25.45-25.39 41.32-60.87 41.29-99.69.03-38.81-15.84-74.35-41.29-99.71C539.8 16.3 504.29.43 465.48.45c-38.79-.03-74.32 15.84-99.71 41.29a140.708 140.708 0 00-41.29 99.74c-.03 38.81 15.84 74.32 41.29 99.69 25.39 25.48 60.92 41.35 99.71 41.32zM423.09 99.07c10.97-10.92 25.72-17.54 42.39-17.56 16.68.03 31.42 6.64 42.39 17.56 10.92 10.97 17.54 25.72 17.56 42.42-.03 16.68-6.64 31.39-17.56 42.39-10.97 10.89-25.72 17.54-42.39 17.56-16.68-.03-31.42-6.67-42.39-17.56-10.92-11-17.54-25.72-17.56-42.39.02-16.7 6.63-31.44 17.56-42.42zM539.21 305.25H79.4c-21.73-.03-41.72 8.9-55.95 23.16C9.2 342.64.3 362.62.3 384.36v256.07c0 21.73 8.9 41.75 23.16 55.95 14.23 14.26 34.21 23.19 55.95 23.16h459.8c21.71.03 41.72-8.9 55.92-23.16 14.28-14.2 23.21-34.21 23.19-55.95V384.36c.03-21.73-8.9-41.72-23.19-55.95-14.2-14.26-34.22-23.19-55.92-23.16zm8.2 335.18c-.05 2.39-.89 4.22-2.42 5.81-1.59 1.53-3.42 2.37-5.78 2.39H79.4c-2.39-.03-4.2-.86-5.78-2.39-1.53-1.59-2.37-3.42-2.42-5.81V384.36c.05-2.37.89-4.2 2.42-5.81 1.59-1.51 3.39-2.37 5.78-2.39h459.8c2.37.03 4.2.89 5.78 2.39 1.53 1.61 2.37 3.44 2.42 5.81l.01 256.07zM850.5 326.28c-10.03-6.05-21.57-9.23-32.92-9.23-10.44 0-20.77 2.55-30.31 7.61l-126.93 67.68v80.43l150.47-80.21v239.8l-150.47-80.35v80.45l126.93 67.65c9.55 5.08 19.88 7.61 30.31 7.61 11.35 0 22.89-3.04 33.03-9.12a64.408 64.408 0 0031.09-55.12V381.29c0-22.59-11.83-43.47-31.2-55.01z"/></g><g id="Gif"><path class="st5" d="M235.6 521.87h75.44c-1.87 21.4-7 38.94-15.38 52.61-15.79 25.8-39.23 38.7-70.31 38.7-26.21 0-47.77-8.83-64.7-26.49-16.93-17.66-25.39-40.2-25.39-67.63 0-14.89 2.89-29.42 8.67-43.58 5.7-13.83 13.67-25.39 23.93-34.67 17.17-15.71 38.45-23.56 63.84-23.56 31.09 0 56.84 12.66 77.27 37.96l-18.19 18.55c-15.38-20.18-35.24-30.27-59.57-30.27-20.1 0-36.42 6.96-48.95 20.87-12.62 14.08-18.92 32.1-18.92 54.08 0 20.18 5.9 36.66 17.7 49.44 11.8 12.78 27.14 19.17 46.02 19.17 13.35 0 24.74-3.66 34.18-10.99 9.36-7.32 15.38-17.33 18.07-30.03h-46.75l3.04-24.16zM371.83 494.53l-14.16 114.99h-26.98l14.16-114.99h26.98zm8.42-54.69c0 3.91-1.42 7.28-4.27 10.13-2.85 2.85-6.27 4.27-10.25 4.27-3.99 0-7.45-1.46-10.38-4.39-2.85-3.09-4.27-6.63-4.27-10.62 0-3.99 1.38-7.36 4.15-10.13 2.85-2.85 6.23-4.27 10.13-4.27 3.99 0 7.45 1.51 10.38 4.52 3.01 2.92 4.51 6.42 4.51 10.49zM435.18 519.55l-10.99 89.97h-26.98l11.11-89.97h-17.58l3.05-25.02h17.58l6.35-51.39c1.63-13.67 5.33-23.72 11.11-30.15 5.78-6.43 14.04-9.64 24.78-9.64 6.51 0 14.12 2.08 22.83 6.23l-2.93 23.68c-5.05-4.07-9.69-6.1-13.92-6.1-4.88 0-8.5 1.67-10.86 5-2.2 3.34-3.87 9.48-5 18.43l-5.37 43.95h24.41l-3.05 25.02h-24.54z"/></g></svg>