<svg xmlns="http://www.w3.org/2000/svg" viewBox="0 0 512 512" style="width:256px;height:256px"><path d="M410.842 207.265c97.767-8.626 117.891-54.628 89.098-97.749C448.234 32.075 334.016 1.59 218.762 36.607 73.721 80.672-22.226 214.687 4.453 335.938 31.13 457.19 170.334 519.762 315.375 475.697c62.951-19.13 116.653-55.201 155.091-99.821 15.516-18.01 20.891-73.726-50.998-70.844-76.656 3.074-87.271-90.826-8.626-97.767zm-24.893-105.121c7.068-7.059 16.84-11.111 26.839-11.111 9.998 0 19.762 4.052 26.838 11.111 7.067 7.076 11.119 16.848 11.119 26.847s-4.052 19.762-11.119 26.838c-7.076 7.067-16.84 11.12-26.838 11.12-9.999 0-19.771-4.052-26.839-11.12-7.067-7.076-11.119-16.839-11.119-26.838s4.052-19.771 11.119-26.847zM65.256 226.724c5.711-17.185 24.26-26.485 41.436-20.782 17.185 5.711 26.493 24.261 20.79 41.437-5.711 17.184-24.269 26.484-41.438 20.789-17.183-5.719-26.491-24.268-20.788-41.444zm62.69 150.709c-11.794 12.451-31.455 12.998-43.905 1.214-12.459-11.793-12.998-31.446-1.204-43.896 11.785-12.459 31.437-13.006 43.896-1.213 12.449 11.785 12.997 31.437 1.213 43.895zm62.596-206.382c-15.466 11.128-37.031 7.606-48.159-7.86-11.128-15.474-7.606-37.03 7.859-48.159v-.008c15.475-11.119 37.032-7.598 48.159 7.868 11.129 15.466 7.608 37.031-7.859 48.159zm59.919-65.462c-2.317-19.88 11.919-37.857 31.8-40.165 19.872-2.308 37.857 11.929 40.165 31.8 2.316 19.872-11.928 37.856-31.801 40.164-19.879 2.318-37.856-11.927-40.164-31.799zm110.436 271.517c0 12.121-4.911 23.948-13.478 32.524-8.567 8.566-20.411 13.478-32.533 13.478-12.113 0-23.965-4.912-32.524-13.478-8.566-8.576-13.478-20.403-13.478-32.524 0-12.122 4.912-23.974 13.478-32.542 8.559-8.559 20.411-13.47 32.524-13.47 12.122 0 23.966 4.911 32.533 13.47 8.567 8.567 13.478 20.419 13.478 32.542z" fill="#67c23a"/></svg>