<svg fill="none" height="165" viewBox="0 0 150 165" width="150" xmlns="http://www.w3.org/2000/svg"><path d="m30.7969 84.1094c1.8984-.211 3.7265-.3516 5.5547-.3516 1.8984 0 3.7265.1406 5.7656.3516v-60.961c0-6.9609 3.7266-10.9687 11.039-10.9687h31.2891v40.8515c0 8.8594 4.4297 13.2188 13.2188 13.2188h40.0779v63.141c0 7.031-3.726 10.898-11.039 10.898h-46.4764c-.9141 4.008-2.461 7.875-4.5 11.32h51.5394c14.554 0 21.796-7.382 21.796-22.007v-63.8442c0-9.0703-1.054-13.0078-6.679-18.7734l-38.742-39.44534c-5.3441-5.48437-9.7738-6.679685-17.6488-6.679685h-33.3984c-14.4844 0-21.7969 7.453125-21.7969 22.078125zm64.2656-32.4141v-37.3359l40.4995 41.2734h-36.6323c-2.8125 0-3.8672-1.125-3.8672-3.9375zm-58.5703 113.2027c19.3359 0 35.7187-16.242 35.7187-35.718 0-19.618-16.1015-35.7191-35.7187-35.7191s-35.718762 16.1011-35.718762 35.7191c0 19.617 16.101562 35.718 35.718762 35.718zm-22.3594-35.718c0-2.602 1.7578-4.36 4.2891-4.36h13.7812v-13.711c0-2.531 1.6875-4.289 4.2891-4.289s4.289 1.758 4.289 4.289v13.711h13.711c2.6016 0 4.3594 1.758 4.3594 4.36 0 2.601-1.7578 4.289-4.3594 4.289h-13.711v13.781c0 2.531-1.6874 4.289-4.289 4.289s-4.2891-1.758-4.2891-4.289v-13.781h-13.7812c-2.5313 0-4.2891-1.688-4.2891-4.289z" fill="#b9b9b9"/></svg>