<svg fill="none" height="14" viewBox="0 0 14 14" width="14" xmlns="http://www.w3.org/2000/svg"><path d="m1.44531 13.9531c.49219 0 .875-.3672.875-.8515v-5.42191c-.02343-.10157-.03906-.20313-.03906-.32031 0-.10938.01563-.21094.03906-.3125v-5.41407c0-.48437-.38281-.85156-.875-.85156-.492185 0-.874998.36719-.874998.85156v11.46879c0 .4843.382813.8515.874998.8515zm10.71089-.2969c.6876 0 1.2657-.5156 1.2657-1.4687v-9.64062c0-.95313-.5781-1.46876-1.2657-1.46876-.3437 0-.6406.10157-.9765.29688l-8.00782 4.70312c-.46876.28126-.75.58594-.85157.96876v.63281c.10157.38281.38281.70312.85157.97656l8.00782 4.70315c.3359.1953.6328.2968.9765.2968zm-.4609-1.8046c-.0547 0-.1094-.0157-.1719-.0547l-7.17965-4.24221c-.08594-.04688-.14063-.10157-.14063-.1875 0-.09375.04688-.14063.14063-.1875l7.17965-4.24219c.0704-.03906.1172-.05469.1641-.05469.1016 0 .1875.0625.1875.20313v8.56246c0 .1407-.0859.2032-.1797.2032z" fill="#b9b9b9"/></svg>