<svg fill="none" height="14" viewBox="0 0 14 14" width="14" xmlns="http://www.w3.org/2000/svg"><path d="m1.83594 13.6562c.34375 0 .64062-.1015.97656-.2968l8.0078-4.70315c.4609-.27344.75-.59375.8438-.97656v5.42191c0 .4843.3828.8515.875.8515.5 0 .8828-.3672.8828-.8515v-11.46879c0-.48437-.3828-.85156-.8828-.85156-.4922 0-.875.36719-.875.85156v5.41407c-.0938-.38282-.375-.6875-.8438-.96876l-8.0078-4.70312c-.34375-.19531-.63281-.29688-.98438-.29688-.6875 0-1.257808.51563-1.257808 1.46876v9.64062c0 .9531.578128 1.4687 1.265628 1.4687zm.46094-1.8046c-.10157 0-.17969-.0625-.17969-.2032v-8.56246c0-.14063.07812-.20313.17969-.20313.04687 0 .10156.01563.17187.05469l7.17187 4.24219c.09376.04687.14063.09375.14063.1875 0 .08593-.04687.14062-.14063.1875l-7.17187 4.24221c-.07031.039-.125.0547-.17187.0547z" fill="#b9b9b9"/></svg>