<svg fill="none" height="15" viewBox="0 0 13 15" width="13" xmlns="http://www.w3.org/2000/svg"><path d="m1.84375 14.2188c.32813 0 .61719-.1172.97656-.3282l9.22659-5.33591c.6719-.39063.9531-.69531.9531-1.1875s-.2812-.78907-.9531-1.1875l-9.22659-5.33594c-.35937-.210938-.64843-.328125-.97656-.328125-.64063 0-1.09375.492185-1.09375 1.265625v11.17185c0 .7813.45312 1.2657 1.09375 1.2657zm.57813-1.9376c-.03907 0-.07032-.039-.07032-.0937v-9.64062c0-.0625.03125-.09376.07032-.09376.03124 0 .0625.01563.09374.03907l8.29688 4.78906c.0313.02344.0625.04687.0625.08594 0 .03906-.0312.0625-.0625.08593l-8.29688 4.78908c-.03124.0234-.0625.039-.09374.039z" fill="#b9b9b9"/></svg>