<svg fill="none" height="17" viewBox="0 0 22 17" width="22" xmlns="http://www.w3.org/2000/svg"><path d="m4.07031 7.39844c1.5 0 1.70313-.60156 2.39063-.60156.16406 0 .28125.03124.47656.13281l1.16406.625c.17188.09375.3125.17969.42969.24219h.05469c.19531-.71094.46875-1.13282.98437-1.47657v-.0625l-1.61719-.85937c-.57031-.30469-.63281-.54688-.63281-1.25 0-1.8125-1.44531-3.265628-3.25-3.265628s-3.242185 1.453128-3.242185 3.265628c0 1.79687 1.437495 3.25 3.242185 3.25zm0-1.47656c-.96875 0-1.75-.80469-1.75-1.77344 0-1 .78125-1.78125 1.75-1.78125.98438 0 1.76563.78125 1.76563 1.78125 0 .96875-.78125 1.77344-1.76563 1.77344zm0 10.36722c1.80469 0 3.25-1.4453 3.25-3.2657 0-.6562.04688-.9296.55469-1.2031l13.2969-7.05468c-.3203-1.23437-1.6641-1.49218-3.6719-.77343l-6.7578 2.42969c-.96876.35156-1.39845.83593-1.65626 1.73437l-.16406.58594c-.11719.42187-.3125.61719-.96094.95312l-1.02344.54689c-.21094.1094-.32031.1406-.47656.1406-.67188 0-.89844-.60936-2.39063-.60936-1.80469 0-3.242185 1.45316-3.242185 3.24996 0 1.8125 1.437495 3.2657 3.242185 3.2657zm6.83589-7.51566c-.3437 0-.6484-.28906-.6484-.64844 0-.36719.3047-.65625.6484-.65625.3672 0 .6641.28906.6641.65625 0 .35938-.2969.64844-.6641.64844zm6.5938 4.39846c2.0156.7422 3.3516.4687 3.6719-.7969l-6.5157-3.44531-3.4062 1.79691v.1015zm-13.42969 1.6328c-.96875 0-1.75-.7969-1.75-1.7813 0-.9765.78125-1.7734 1.75-1.7734.98438 0 1.76563.7969 1.76563 1.7734 0 .9844-.78125 1.7813-1.76563 1.7813z" fill="#b9b9b9"/></svg>