<svg fill="none" height="18" viewBox="0 0 16 18" width="16" xmlns="http://www.w3.org/2000/svg"><path d="m8.00781 12.6016c.1875 0 .36719-.0625.55469-.25l2.6172-2.52348c.1328-.13281.2109-.28124.2109-.46874 0-.36719-.2968-.63282-.6562-.63282-.1797 0-.3594.07813-.4844.21875l-1.09375 1.15629-.5.5781.07813-1.15626v-8.09375c0-.39063-.32813-.718752-.72657-.718752-.40625 0-.73437.328122-.73437.718752v8.09375l.07812 1.15626-.5-.5781-1.09375-1.15629c-.125-.14062-.3125-.21875-.49219-.21875-.35937 0-.64843.26563-.64843.63282 0 .1875.07812.33593.21093.46874l2.625 2.52348c.1875.1875.35938.25.55469.25zm-4.50781 5.0546h9c1.6953 0 2.5703-.875 2.5703-2.5468v-7.67971c0-1.67188-.875-2.54688-2.5703-2.54688h-2.1094v1.55469h2.0078c.711 0 1.1172.375 1.1172 1.125v7.4063c0 .75-.4062 1.125-1.1172 1.125h-8.79684c-.71875 0-1.11718-.375-1.11718-1.125v-7.4063c0-.75.39843-1.125 1.11718-1.125h2.03125v-1.55469h-2.13281c-1.6875 0-2.570312.86719-2.570312 2.54688v7.67971c0 1.6718.882812 2.5468 2.570312 2.5468z" fill="#b9b9b9"/></svg>