<svg fill="none" height="19" viewBox="0 0 18 19" width="18" xmlns="http://www.w3.org/2000/svg"><path d="m9 .53125c-.28125 0-.5.226562-.5.50781v2.92969c0 .28125.21875.5.5.5s.50781-.21875.50781-.5v-2.92969c0-.281248-.22656-.50781-.50781-.50781zm-2.30469.242188c-.27343.054687-.42969.312502-.34375.609372l.25782.96875c.07812.26563.32812.40625.63281.32813.28125-.08594.40625-.33594.32812-.60157l-.26562-.9375c-.08594-.29687-.33594-.42187-.60938-.367182zm4.60939.015624c-.2578-.078124-.5235.054688-.6016.351558l-.2578.95313c-.0781.26563.0703.53906.3359.60156.2735.07031.5313-.07031.6094-.34375l.25-.95312c.0782-.28125-.0703-.531252-.3359-.609378zm-6.71876.921878c-.24219.14062-.32813.44531-.17969.69531l1.46094 2.53125c.14062.25.44531.32812.67969.1875.24218-.14062.32812-.4375.1875-.6875l-1.46876-2.53906c-.14062-.24219-.4375-.32032-.67968-.1875zm8.83596.00781c-.2422-.14063-.5469-.0625-.6875.17969l-1.461 2.53906c-.1484.25-.0625.54688.1797.6875s.5469.0625.6875-.1875l1.461-2.53125c.1406-.25.0546-.54687-.1797-.6875zm-10.71096 1.36719c-.20313.1875-.1875.50781 0 .69531l.69531.69531c.21094.20313.48437.21094.70313.00782.1875-.1875.19531-.49219-.00782-.70313l-.69531-.6875c-.21094-.21875-.49219-.21094-.69531-.00781zm12.57816.00781c-.1953-.19531-.5079-.1875-.6875 0l-.7032.70313c-.2031.20312-.2031.49218-.0078.6875.2032.20312.5.20312.6953.00781l.6953-.69531c.2032-.21876.211-.50782.0079-.70313zm1.3671 1.85937c-.1406-.24218-.4453-.32031-.6874-.17968l-2.5313 1.46094c-.25.14062-.3359.44531-.1875.6875.1328.24218.4375.32812.6875.17968l2.5391-1.46094c.2422-.14062.3125-.44531.1796-.6875zm-15.30464-.00781c-.14062.25-.0625.55469.17969.69531l2.53906 1.46094c.25.14844.54688.0625.6875-.17968.14063-.24219.0625-.54688-.1875-.6875l-2.53906-1.46094c-.24219-.14063-.53906-.0625-.67969.17187zm16.24224 2.125c-.0626-.26562-.3438-.42187-.6016-.34375l-.961.25782c-.2656.07812-.4296.32812-.3359.63281.0703.22656.3125.39843.5938.32031l.9453-.25781c.2812-.07813.4297-.34375.3594-.60938zm-17.195362 0c-.0625.26563.101562.53125.359374.60938l.953128.25781c.27344.07031.53906-.07031.60156-.35156.0625-.25782-.07031-.53906-.34375-.60938l-.94531-.24218c-.296878-.07032-.562502.07812-.625002.33593zm17.437462 2.29688c0-.27344-.2187-.5-.5-.5h-2.9297c-.2812 0-.5.22656-.5.5 0 .28906.2188.50781.5.50781h2.9297c.2813 0 .5-.21875.5-.50781zm-17.671838 0c0 .28906.226563.50781.5.50781h2.929688c.28906 0 .50781-.21875.50781-.50781 0-.27344-.21875-.5-.50781-.5h-2.929688c-.273437 0-.5.22656-.5.5zm17.429738 2.32031c.0703-.2656-.0547-.5391-.3438-.6094l-.9609-.2656c-.2735-.0703-.5313.0781-.6016.3437-.0703.2657.0781.5469.3359.6172l.9532.25c.2968.0782.5468-.0781.6172-.3359zm-17.18755-.0078c.0625.2578.351562.4141.60937.3437l.95313-.2422c.28125-.0781.42969-.3281.35156-.6015-.07812-.2656-.34375-.4297-.60937-.3594l-.937502.2578c-.296876.086-.429688.336-.367188.6016zm16.24995 2.1094c.1407-.2422.0626-.5469-.1796-.6797l-2.5391-1.4688c-.25-.1484-.5547-.0547-.6875.1797-.1484.2422-.0625.5469.1875.6875l2.5313 1.461c.2421.1406.5468.0624.6874-.1797zm-15.30464 0c.13282.2421.4375.3203.67969.1797l2.53906-1.461c.25-.1406.32813-.4453.1875-.6797-.14062-.2422-.4375-.3359-.69531-.1875l-2.53125 1.4688c-.24219.1328-.32031.4375-.17969.6797zm12.07034 3.2343c.2422-.1328.3203-.4375.1797-.6796l-1.461-2.5391c-.1406-.25-.4453-.3281-.6797-.1875-.25.1406-.3359.4375-.1875.6875l1.461 2.5391c.1406.2421.4375.3203.6875.1796zm-8.83596 0c.23437.1407.53906.0625.67968-.1796l1.46876-2.5391c.14062-.25.05468-.5469-.17969-.6875-.24219-.1406-.54688-.0625-.6875.1875l-1.46094 2.5391c-.14844.2421-.0625.539.17969.6796zm10.70316-1.3593c.2031-.2032.1953-.5157.0156-.7032l-.7109-.6875c-.2032-.1953-.5-.2187-.711 0-.1875.1954-.1797.4922.0078.6875l.6953.6953c.211.211.5079.211.7032.0079zm-12.57035 0c.19531.1953.5.2031.6875.0156l.69531-.7031c.20313-.211.21094-.4922.01563-.6954-.19531-.1953-.50781-.2031-.70313 0l-.6875.6954c-.21094.2109-.21875.4843-.00781.6875zm6.28125 2.5468c.28125 0 .50781-.2265.50781-.5078v-2.9219c0-.289-.22656-.5078-.50781-.5078s-.5.2188-.5.5078v2.9219c0 .2813.21875.5078.5.5078zm2.3047-.2421c.3047-.0704.4141-.3438.3515-.6016l-.2578-.961c-.0781-.2734-.3437-.4296-.6093-.3515-.2891.0781-.4219.3515-.3516.6015l.2734.9532c.086.2734.3047.4297.5938.3594zm-4.64845 0c.29687.0937.57813-.086.64063-.3438l.26562-.9531c.07031-.2657-.07812-.5313-.34375-.6016s-.53125.0703-.60937.3438l-.25.9531c-.07813.2812.03124.5156.29687.6016z" fill="#b9b9b9"/></svg>