<svg fill="none" height="13" viewBox="0 0 20 13" width="20" xmlns="http://www.w3.org/2000/svg"><path d="m1.57812 12.2109c.53126 0 .8125-.2187.98438-.7812l.85156-2.40626h4.45313l.85156 2.40626c.17187.5625.45313.7812.98437.7812.56248 0 .92188-.3359.92188-.8593 0-.1954-.0312-.3594-.1094-.5782l-3.43748-9.29684c-.24218-.679685-.69531-.999998-1.42968-.999998-.70313 0-1.15625.320313-1.39063.992188l-3.460935 9.35155c-.078125.2031-.109375.375-.109375.5469 0 .5234.33594.8437.89062.8437zm2.28907-4.65621 1.75781-5.0625h.04688l1.75781 5.0625zm11.03901 4.71871c1.1797 0 2.2891-.6328 2.7735-1.6328h.0312v.875c.0157.4766.336.7656.7969.7656.4766 0 .8047-.3046.8047-.8359v-5.14842c0-1.72657-1.3203-2.85157-3.3984-2.85157-1.6016 0-2.875.65625-3.3125 1.6875-.086.1875-.1328.36719-.1328.53907 0 .39843.2968.66406.7109.66406.2969 0 .5234-.10938.6875-.35156.4531-.85157 1.0625-1.22657 1.9922-1.22657 1.125 0 1.8125.63281 1.8125 1.65625v.64063l-2.4375.14062c-2.0625.10938-3.1953 1.03125-3.1953 2.53125 0 1.52344 1.1875 2.54684 2.8671 2.54684zm.4454-1.2656c-.9766 0-1.6485-.5312-1.6485-1.34374 0-.77344.625-1.28906 1.7578-1.35937l2.211-.14844v.78906c0 1.16409-1.0313 2.06249-2.3203 2.06249z" fill="#b9b9b9"/></svg>