<svg fill="none" height="17" viewBox="0 0 20 17" width="20" xmlns="http://www.w3.org/2000/svg"><path d="m10.7812 16.375c3.4688 0 5.7813-1.2344 5.7813-3.0703 0-1.5938-1.3047-1.9219-1.3047-2.8516 0-1.27341 4.5391-1.47654 4.5391-4.78904 0-3.28125-3.3907-5.453122-8.4297-5.453122-6.5547 0-10.968762 3.328122-10.968762 8.210942 0 4.75782 4.187502 7.95312 10.382762 7.95312zm0-1.6719c-5.24995 0-8.7187-2.5156-8.7187-6.28122 0-3.92969 3.6875-6.54688 9.3047-6.54688 4.0781 0 6.7656 1.53125 6.7656 3.78906 0 2.64844-4.5625 2.35938-4.5625 4.72654 0 1.3516 1.3125 1.7188 1.3125 2.6875 0 .9844-1.625 1.625-4.1016 1.625zm.6094-8.94529c.7266 0 1.3047-.57812 1.3047-1.29687 0-.72656-.5781-1.30469-1.3047-1.30469-.7187 0-1.3125.57813-1.3125 1.30469 0 .71875.5938 1.29687 1.3125 1.29687zm-3.89841 1.24219c.89062 0 1.61719-.71094 1.61719-1.61719 0-.89062-.73438-1.60156-1.61719-1.60156-.89844 0-1.625.71094-1.625 1.60156 0 .90625.72656 1.61719 1.625 1.61719zm7.41401-.75c.5782 0 1.0469-.46094 1.0469-1.05469 0-.58593-.4687-1.0625-1.0469-1.0625-.5937 0-1.0703.47657-1.0703 1.0625 0 .58594.4766 1.05469 1.0703 1.05469zm-10.2187 3.21875c.71094 0 1.28906-.59375 1.28906-1.30469s-.57031-1.28125-1.28906-1.28125c-.71094 0-1.28906.57031-1.28906 1.28125s.58594 1.30469 1.28906 1.30469zm5.4219 3.45315c1.2344 0 2.2109-.9766 2.2109-2.211 0-1.2109-.9922-2.2109-2.2109-2.2109-1.21878 0-2.21096 1-2.21096 2.2109 0 1.2188.99218 2.211 2.21096 2.211zm0-1.0313c-.65628 0-1.17971-.5234-1.17971-1.1875 0-.72654.55469-1.15622 1.15621-1.16404.625-.00781 1.2032.41406 1.2032 1.16404 0 .6641-.5235 1.1875-1.1797 1.1875z" fill="#b9b9b9"/></svg>