<svg fill="none" height="13" viewBox="0 0 14 13" width="14" xmlns="http://www.w3.org/2000/svg"><path d="m.945312 11.1562c-.328124.3282-.34375.9141.007813 1.2579.343755.3437.929685.3359 1.257815.0078l4.78125-4.78909 4.78901 4.78909c.336.3359.9141.3359 1.2579-.0078.3359-.3516.3437-.9219 0-1.2579l-4.78129-4.78901 4.78129-4.78125c.3437-.33594.3437-.914065 0-1.257815-.3516-.3359375-.9219-.34375-1.2579-.007813l-4.78901 4.789068-4.78125-4.789068c-.32813-.3281245-.92188-.3437495-1.257815.007813-.34375.34375-.335937.929685-.007813 1.257815l4.789068 4.78125z" fill="#e5e5e5"/></svg>