<svg fill="none" height="15" viewBox="0 0 16 15" width="16" xmlns="http://www.w3.org/2000/svg"><path d="m3.26562 14.6719h9.46098c1.6953 0 2.5703-.875 2.5703-2.5469v-9.50781c0-1.671878-.875-2.5468775-2.5703-2.5468775h-9.46098c-1.6875 0-2.570308.8671875-2.570308 2.5468775v9.50781c0 1.6719.882808 2.5469 2.570308 2.5469zm.10157-1.5547c-.71875 0-1.11719-.375-1.11719-1.1328v-9.22659c0-.75781.39844-1.13281 1.11719-1.13281h9.25781c.7109 0 1.1172.375 1.1172 1.13281v9.22659c0 .7578-.4063 1.1328-1.1172 1.1328z" fill="#e5e5e5"/></svg>