<svg fill="none" height="20" viewBox="0 0 17 20" width="17" xmlns="http://www.w3.org/2000/svg"><path d="m3.28125 10.1484c.25781-.039.50781-.0625.77344-.0625.25781 0 .51562.0235.78125.0703v-6.58589c0-.71093.375-1.10937 1.13281-1.10937h3.3125v4.25c0 1.13281.55469 1.67968 1.67965 1.67968h4.1875v6.76558c0 .7188-.375 1.1094-1.1328 1.1094h-4.96091c-.09375.5625-.30469 1.0938-.59375 1.5625h5.69526c1.6797 0 2.5469-.8828 2.5469-2.5703v-7.09374c0-1.09375-.1406-1.59375-.8203-2.28906l-4.0859-4.14844c-.6641-.67187-1.211-.828122-2.19534-.828122h-3.77344c-1.67187 0-2.54687.882812-2.54687 2.578122zm7.35935-3.5859v-3.89844l4.2969 4.35938h-3.8281c-.3282 0-.4688-.14063-.4688-.46094zm-6.5781 12.6875c2.1875 0 4.02344-1.8281 4.02344-4.0312 0-2.2032-1.82032-4.0235-4.02344-4.0235s-4.0234375 1.8203-4.0234375 4.0235c0 2.2109 1.8203175 4.0312 4.0234375 4.0312zm-2.55469-4.0312c0-.3204.21875-.5313.53907-.5313h1.47656v-1.4766c0-.3203.21094-.539.53906-.539s.53906.2187.53906.539v1.4766h1.47656c.32032 0 .53126.2109.53126.5313 0 .3281-.21094.539-.53126.539h-1.47656v1.4844c0 .3203-.21094.539-.53906.539s-.53906-.2187-.53906-.539v-1.4844h-1.47656c-.32032 0-.53907-.2109-.53907-.539z" fill="#b9b9b9"/></svg>