<svg fill="none" height="19" viewBox="0 0 18 19" width="18" xmlns="http://www.w3.org/2000/svg"><path d="m.34375 5.38281c0 .44531.3125.75.78906.75h2.85157v7.77339c0 .4063.26562.6719.67187.6719h7.78905v2.8828c0 .4844.3359.8047.7813.8047.4531 0 .789-.3203.789-.8047v-2.8828h2.8516c.4766 0 .789-.3047.789-.7422 0-.4453-.3124-.75-.789-.75h-2.8516v-7.7734c0-.40625-.2656-.67969-.6718-.67969h-7.7813v-2.875c0-.48437-.33594-.812498-.78906-.812498-.44532 0-.78906.328128-.78906.812498v2.875h-2.85157c-.47656 0-.78906.3125-.78906.75zm5.4375 7.70309c-.15625 0-.21875-.0625-.21875-.2265v-6.72659h6.6563c.1562 0 .2265.0625.2265.21875v6.73434z" fill="#b9b9b9"/></svg>